<?xml version="1.0" encoding="iso-8859-1"?>
<!-- Generator: Adobe Illustrator 16.0.0, SVG Export Plug-In . SVG Version: 6.00 Build 0)  -->
<!DOCTYPE svg PUBLIC "-//W3C//DTD SVG 1.1//EN" "http://www.w3.org/Graphics/SVG/1.1/DTD/svg11.dtd">
<svg version="1.1" id="Capa_1" xmlns="http://www.w3.org/2000/svg" xmlns:xlink="http://www.w3.org/1999/xlink" x="0px" y="0px"
	 width="31.891px" height="31.891px" viewBox="0 0 31.891 31.891" style="enable-background:new 0 0 31.891 31.891;"
	 xml:space="preserve">
<g>
	<g>
		<polygon points="29.671,27.487 27.584,27.487 27.584,25.739 4.508,25.739 4.508,27.487 2.488,27.487 2.488,29.168 0.942,29.168 
			0.942,30.918 31.152,30.918 31.152,29.168 29.671,29.168 		"/>
		<path d="M9.487,24.325v-8.748h1.009v-1.149c0-0.703-0.569-1.273-1.273-1.273H4.77c-0.703,0-1.272,0.57-1.272,1.273v1.149h1.077
			v8.748H9.487z"/>
		<path d="M27.584,24.325v-8.748h1.076V14.43c0-0.703-0.569-1.273-1.271-1.273h-4.451c-0.703,0-1.271,0.57-1.271,1.273v1.148h1.076
			v8.747H27.584L27.584,24.325z"/>
		<path d="M18.501,24.325v-8.748h1.077v-1.149c0-0.703-0.569-1.273-1.271-1.273h-4.453c-0.703,0-1.272,0.57-1.272,1.273v1.149h1.008
			v8.748H18.501z"/>
		<path d="M17.109,1.273c-0.728-0.401-1.604-0.401-2.329,0L1.398,8.678C0.535,9.154,0,10.062,0,11.049v0.83h31.891v-0.83
			c0-0.986-0.535-1.896-1.396-2.372L17.109,1.273z M10.87,8.245c-0.133,0-0.248-0.089-0.281-0.218
			C10.556,7.899,10.613,7.765,10.73,7.7l4.044-2.241c0.726-0.4,1.606-0.4,2.332,0L21.148,7.7c0.117,0.064,0.177,0.198,0.144,0.327
			s-0.147,0.218-0.28,0.218H10.87z"/>
	</g>
</g>
<g>
</g>
<g>
</g>
<g>
</g>
<g>
</g>
<g>
</g>
<g>
</g>
<g>
</g>
<g>
</g>
<g>
</g>
<g>
</g>
<g>
</g>
<g>
</g>
<g>
</g>
<g>
</g>
<g>
</g>
</svg>
